<svg width="1920" height="240" viewBox="0 0 1920 240" fill="none" xmlns="http://www.w3.org/2000/svg">
<rect width="1920" height="240" fill="black"/>
<path d="M268.31 90.2756C268.196 89.1297 267.708 88.2396 266.847 87.6051C265.985 86.9706 264.815 86.6534 263.338 86.6534C262.334 86.6534 261.487 86.7955 260.795 87.0795C260.104 87.3542 259.574 87.7377 259.205 88.2301C258.845 88.7225 258.665 89.2812 258.665 89.9062C258.646 90.4271 258.755 90.8816 258.991 91.2699C259.238 91.6581 259.574 91.9943 260 92.2784C260.426 92.553 260.919 92.7945 261.477 93.0028C262.036 93.2017 262.633 93.3722 263.267 93.5142L265.881 94.1392C267.15 94.4233 268.314 94.8021 269.375 95.2756C270.436 95.7491 271.354 96.3314 272.131 97.0227C272.907 97.714 273.509 98.5284 273.935 99.4659C274.37 100.403 274.593 101.478 274.602 102.69C274.593 104.471 274.138 106.014 273.239 107.321C272.348 108.618 271.061 109.627 269.375 110.347C267.699 111.057 265.677 111.412 263.31 111.412C260.961 111.412 258.916 111.052 257.173 110.332C255.44 109.613 254.086 108.547 253.111 107.136C252.145 105.716 251.638 103.959 251.591 101.866H257.543C257.609 102.842 257.888 103.656 258.381 104.31C258.883 104.954 259.55 105.441 260.384 105.773C261.226 106.095 262.178 106.256 263.239 106.256C264.28 106.256 265.185 106.104 265.952 105.801C266.728 105.498 267.33 105.077 267.756 104.537C268.182 103.997 268.395 103.377 268.395 102.676C268.395 102.023 268.201 101.473 267.812 101.028C267.434 100.583 266.875 100.205 266.136 99.892C265.407 99.5795 264.512 99.2955 263.452 99.0398L260.284 98.2443C257.831 97.6477 255.895 96.715 254.474 95.446C253.054 94.1771 252.348 92.4678 252.358 90.3182C252.348 88.5568 252.817 87.018 253.764 85.7017C254.721 84.3854 256.032 83.358 257.699 82.6193C259.366 81.8807 261.259 81.5114 263.381 81.5114C265.54 81.5114 267.424 81.8807 269.034 82.6193C270.653 83.358 271.913 84.3854 272.812 85.7017C273.712 87.018 274.176 88.5426 274.205 90.2756H268.31ZM284.89 81.9091V111H278.739V81.9091H284.89ZM289.95 111V81.9091H296.101V105.929H308.572V111H289.95ZM314.776 81.9091L321.808 104.011H322.077L329.123 81.9091H335.941L325.913 111H317.987L307.944 81.9091H314.776ZM339.442 111V81.9091H359.045V86.9801H345.593V93.9119H358.036V98.983H345.593V105.929H359.102V111H339.442ZM363.935 111V81.9091H375.412C377.609 81.9091 379.484 82.3021 381.037 83.0881C382.599 83.8646 383.788 84.9678 384.602 86.3977C385.426 87.8182 385.838 89.4896 385.838 91.4119C385.838 93.3437 385.421 95.0057 384.588 96.3977C383.755 97.7803 382.547 98.8409 380.966 99.5795C379.394 100.318 377.491 100.688 375.256 100.688H367.571V95.7443H374.261C375.436 95.7443 376.411 95.5833 377.188 95.2614C377.964 94.9394 378.542 94.4564 378.92 93.8125C379.309 93.1686 379.503 92.3684 379.503 91.4119C379.503 90.446 379.309 89.6316 378.92 88.9688C378.542 88.3059 377.959 87.804 377.173 87.4631C376.397 87.1127 375.417 86.9375 374.233 86.9375H370.085V111H363.935ZM379.645 97.7614L386.875 111H380.085L373.011 97.7614H379.645ZM261.051 154.568V134.455H266.136V154.568H261.051ZM253.537 147.054V141.969H273.651V147.054H253.537ZM279.403 159V155.349L293.92 134.98H279.375V129.909H301.648V133.56L287.116 153.929H301.676V159H279.403ZM331.761 144.455C331.761 147.627 331.16 150.326 329.957 152.551C328.764 154.777 327.135 156.476 325.071 157.651C323.016 158.815 320.705 159.398 318.139 159.398C315.554 159.398 313.234 158.811 311.179 157.636C309.124 156.462 307.5 154.762 306.307 152.537C305.114 150.312 304.517 147.617 304.517 144.455C304.517 141.282 305.114 138.583 306.307 136.358C307.5 134.133 309.124 132.437 311.179 131.273C313.234 130.098 315.554 129.511 318.139 129.511C320.705 129.511 323.016 130.098 325.071 131.273C327.135 132.437 328.764 134.133 329.957 136.358C331.16 138.583 331.761 141.282 331.761 144.455ZM325.526 144.455C325.526 142.4 325.218 140.667 324.602 139.256C323.996 137.845 323.139 136.775 322.031 136.045C320.923 135.316 319.626 134.952 318.139 134.952C316.652 134.952 315.355 135.316 314.247 136.045C313.139 136.775 312.277 137.845 311.662 139.256C311.056 140.667 310.753 142.4 310.753 144.455C310.753 146.509 311.056 148.242 311.662 149.653C312.277 151.064 313.139 152.134 314.247 152.864C315.355 153.593 316.652 153.957 318.139 153.957C319.626 153.957 320.923 153.593 322.031 152.864C323.139 152.134 323.996 151.064 324.602 149.653C325.218 148.242 325.526 146.509 325.526 144.455ZM360.65 129.909V159H355.337L342.681 140.69H342.468V159H336.317V129.909H341.715L354.272 148.205H354.528V129.909H360.65ZM365.732 159V129.909H385.334V134.98H371.882V141.912H384.325V146.983H371.882V153.929H385.391V159H365.732Z" fill="white"/>
<path d="M1449.84 135H1439.53V105.909H1449.93C1452.85 105.909 1455.37 106.491 1457.48 107.656C1459.59 108.812 1461.22 110.473 1462.36 112.642C1463.5 114.811 1464.07 117.405 1464.07 120.426C1464.07 123.456 1463.5 126.061 1462.36 128.239C1461.22 130.417 1459.59 132.088 1457.45 133.253C1455.33 134.418 1452.8 135 1449.84 135ZM1445.68 129.73H1449.59C1451.4 129.73 1452.93 129.408 1454.17 128.764C1455.42 128.111 1456.36 127.102 1456.99 125.739C1457.62 124.366 1457.94 122.595 1457.94 120.426C1457.94 118.277 1457.62 116.52 1456.99 115.156C1456.36 113.793 1455.43 112.789 1454.19 112.145C1452.95 111.501 1451.42 111.179 1449.6 111.179H1445.68V129.73ZM1478.46 135.426C1476.22 135.426 1474.28 134.972 1472.66 134.062C1471.05 133.144 1469.81 131.847 1468.94 130.17C1468.07 128.485 1467.64 126.491 1467.64 124.19C1467.64 121.946 1468.07 119.976 1468.94 118.281C1469.81 116.586 1471.04 115.265 1472.62 114.318C1474.21 113.371 1476.08 112.898 1478.22 112.898C1479.66 112.898 1481 113.13 1482.24 113.594C1483.49 114.048 1484.58 114.735 1485.5 115.653C1486.44 116.572 1487.17 117.727 1487.69 119.119C1488.21 120.502 1488.47 122.121 1488.47 123.977V125.639H1470.05V121.889H1482.78C1482.78 121.018 1482.59 120.246 1482.21 119.574C1481.83 118.902 1481.31 118.376 1480.63 117.997C1479.97 117.609 1479.2 117.415 1478.32 117.415C1477.4 117.415 1476.58 117.628 1475.87 118.054C1475.17 118.471 1474.62 119.034 1474.23 119.744C1473.83 120.445 1473.63 121.226 1473.62 122.088V125.653C1473.62 126.733 1473.81 127.666 1474.21 128.452C1474.62 129.238 1475.19 129.844 1475.93 130.27C1476.67 130.696 1477.55 130.909 1478.56 130.909C1479.23 130.909 1479.85 130.814 1480.41 130.625C1480.96 130.436 1481.44 130.152 1481.84 129.773C1482.24 129.394 1482.54 128.93 1482.75 128.381L1488.35 128.75C1488.06 130.095 1487.48 131.269 1486.6 132.273C1485.73 133.267 1484.6 134.044 1483.22 134.602C1481.84 135.152 1480.26 135.426 1478.46 135.426ZM1498.64 135.412C1497.25 135.412 1496.01 135.17 1494.92 134.688C1493.83 134.195 1492.97 133.471 1492.34 132.514C1491.71 131.548 1491.4 130.346 1491.4 128.906C1491.4 127.694 1491.62 126.676 1492.07 125.852C1492.51 125.028 1493.12 124.366 1493.89 123.864C1494.65 123.362 1495.52 122.983 1496.5 122.727C1497.48 122.472 1498.52 122.292 1499.6 122.188C1500.86 122.055 1501.89 121.932 1502.66 121.818C1503.44 121.695 1504 121.515 1504.35 121.278C1504.7 121.042 1504.88 120.691 1504.88 120.227V120.142C1504.88 119.242 1504.6 118.546 1504.03 118.054C1503.47 117.562 1502.67 117.315 1501.64 117.315C1500.55 117.315 1499.69 117.557 1499.04 118.04C1498.4 118.513 1497.97 119.11 1497.76 119.83L1492.17 119.375C1492.45 118.049 1493.01 116.903 1493.84 115.938C1494.68 114.962 1495.75 114.214 1497.07 113.693C1498.39 113.163 1499.93 112.898 1501.67 112.898C1502.88 112.898 1504.04 113.04 1505.15 113.324C1506.27 113.608 1507.26 114.048 1508.12 114.645C1508.99 115.241 1509.68 116.009 1510.18 116.946C1510.68 117.874 1510.93 118.987 1510.93 120.284V135H1505.19V131.974H1505.02C1504.67 132.656 1504.2 133.258 1503.62 133.778C1503.03 134.29 1502.32 134.692 1501.5 134.986C1500.68 135.27 1499.72 135.412 1498.64 135.412ZM1500.38 131.236C1501.27 131.236 1502.05 131.061 1502.74 130.71C1503.42 130.35 1503.95 129.867 1504.34 129.261C1504.73 128.655 1504.92 127.969 1504.92 127.202V124.886C1504.73 125.009 1504.47 125.123 1504.14 125.227C1503.82 125.322 1503.45 125.412 1503.05 125.497C1502.64 125.573 1502.23 125.644 1501.83 125.71C1501.42 125.767 1501.05 125.819 1500.72 125.866C1500.01 125.971 1499.39 126.136 1498.86 126.364C1498.33 126.591 1497.92 126.899 1497.62 127.287C1497.33 127.666 1497.18 128.139 1497.18 128.707C1497.18 129.531 1497.48 130.161 1498.08 130.597C1498.68 131.023 1499.45 131.236 1500.38 131.236ZM1541.41 116.094H1535.19C1535.07 115.289 1534.84 114.574 1534.49 113.949C1534.14 113.314 1533.69 112.775 1533.14 112.33C1532.59 111.884 1531.96 111.544 1531.24 111.307C1530.53 111.07 1529.75 110.952 1528.92 110.952C1527.42 110.952 1526.1 111.326 1524.99 112.074C1523.87 112.812 1523 113.892 1522.39 115.312C1521.77 116.723 1521.46 118.437 1521.46 120.455C1521.46 122.528 1521.77 124.271 1522.39 125.682C1523.01 127.093 1523.88 128.158 1525 128.878C1526.12 129.598 1527.41 129.957 1528.88 129.957C1529.7 129.957 1530.46 129.848 1531.17 129.631C1531.88 129.413 1532.51 129.096 1533.05 128.679C1533.6 128.253 1534.06 127.737 1534.42 127.131C1534.79 126.525 1535.04 125.833 1535.19 125.057L1541.41 125.085C1541.25 126.42 1540.84 127.708 1540.2 128.949C1539.57 130.18 1538.71 131.283 1537.63 132.259C1536.56 133.224 1535.28 133.991 1533.79 134.56C1532.32 135.118 1530.64 135.398 1528.78 135.398C1526.18 135.398 1523.86 134.811 1521.82 133.636C1519.78 132.462 1518.17 130.762 1516.99 128.537C1515.82 126.312 1515.23 123.617 1515.23 120.455C1515.23 117.282 1515.82 114.583 1517.02 112.358C1518.21 110.133 1519.83 108.437 1521.88 107.273C1523.92 106.098 1526.22 105.511 1528.78 105.511C1530.46 105.511 1532.03 105.748 1533.47 106.222C1534.92 106.695 1536.2 107.386 1537.32 108.295C1538.43 109.195 1539.34 110.298 1540.04 111.605C1540.75 112.912 1541.21 114.408 1541.41 116.094ZM1551.75 122.386V135H1545.7V105.909H1551.58V117.031H1551.84C1552.33 115.743 1553.13 114.735 1554.23 114.006C1555.33 113.267 1556.7 112.898 1558.36 112.898C1559.88 112.898 1561.2 113.229 1562.32 113.892C1563.46 114.545 1564.34 115.488 1564.97 116.719C1565.6 117.94 1565.91 119.403 1565.9 121.108V135H1559.85V122.188C1559.86 120.843 1559.52 119.796 1558.83 119.048C1558.15 118.3 1557.19 117.926 1555.96 117.926C1555.14 117.926 1554.41 118.101 1553.77 118.452C1553.15 118.802 1552.65 119.313 1552.29 119.986C1551.94 120.649 1551.76 121.449 1551.75 122.386ZM1570.66 135V113.182H1576.72V135H1570.66ZM1573.7 110.369C1572.8 110.369 1572.03 110.071 1571.39 109.474C1570.75 108.868 1570.44 108.144 1570.44 107.301C1570.44 106.468 1570.75 105.753 1571.39 105.156C1572.03 104.55 1572.8 104.247 1573.7 104.247C1574.6 104.247 1575.37 104.55 1576.01 105.156C1576.65 105.753 1576.97 106.468 1576.97 107.301C1576.97 108.144 1576.65 108.868 1576.01 109.474C1575.37 110.071 1574.6 110.369 1573.7 110.369ZM1589.59 135L1581.27 105.909H1587.99L1592.8 126.122H1593.04L1598.36 105.909H1604.11L1609.41 126.165H1609.66L1614.48 105.909H1621.2L1612.87 135H1606.88L1601.34 115.98H1601.11L1595.59 135H1589.59ZM1631.89 135.426C1629.68 135.426 1627.78 134.957 1626.17 134.02C1624.57 133.073 1623.33 131.757 1622.46 130.071C1621.59 128.376 1621.15 126.411 1621.15 124.176C1621.15 121.922 1621.59 119.953 1622.46 118.267C1623.33 116.572 1624.57 115.256 1626.17 114.318C1627.78 113.371 1629.68 112.898 1631.89 112.898C1634.1 112.898 1636 113.371 1637.6 114.318C1639.21 115.256 1640.45 116.572 1641.32 118.267C1642.19 119.953 1642.63 121.922 1642.63 124.176C1642.63 126.411 1642.19 128.376 1641.32 130.071C1640.45 131.757 1639.21 133.073 1637.6 134.02C1636 134.957 1634.1 135.426 1631.89 135.426ZM1631.92 130.739C1632.92 130.739 1633.76 130.455 1634.43 129.886C1635.1 129.309 1635.61 128.523 1635.95 127.528C1636.3 126.534 1636.48 125.402 1636.48 124.134C1636.48 122.865 1636.3 121.733 1635.95 120.739C1635.61 119.744 1635.1 118.958 1634.43 118.381C1633.76 117.803 1632.92 117.514 1631.92 117.514C1630.91 117.514 1630.05 117.803 1629.36 118.381C1628.68 118.958 1628.16 119.744 1627.81 120.739C1627.47 121.733 1627.3 122.865 1627.3 124.134C1627.3 125.402 1627.47 126.534 1627.81 127.528C1628.16 128.523 1628.68 129.309 1629.36 129.886C1630.05 130.455 1630.91 130.739 1631.92 130.739ZM1652.61 122.386V135H1646.56V113.182H1652.33V117.031H1652.59C1653.07 115.762 1653.88 114.759 1655.01 114.02C1656.15 113.272 1657.53 112.898 1659.15 112.898C1660.66 112.898 1661.98 113.229 1663.11 113.892C1664.24 114.555 1665.11 115.502 1665.74 116.733C1666.36 117.955 1666.68 119.413 1666.68 121.108V135H1660.63V122.188C1660.64 120.852 1660.29 119.811 1659.6 119.062C1658.91 118.305 1657.96 117.926 1656.75 117.926C1655.93 117.926 1655.21 118.101 1654.59 118.452C1653.97 118.802 1653.49 119.313 1653.14 119.986C1652.8 120.649 1652.62 121.449 1652.61 122.386Z" fill="white"/>
<path d="M712.83 71H710.614L717.023 53.5455H719.205L725.614 71H723.398L718.182 56.3068H718.045L712.83 71ZM713.648 64.1818H722.58V66.0568H713.648V64.1818ZM733.003 71.2727C731.912 71.2727 730.949 70.9972 730.114 70.446C729.278 69.8892 728.625 69.1051 728.153 68.0938C727.682 67.0767 727.446 65.875 727.446 64.4886C727.446 63.1136 727.682 61.9205 728.153 60.9091C728.625 59.8977 729.281 59.1165 730.122 58.5653C730.963 58.0142 731.935 57.7386 733.037 57.7386C733.889 57.7386 734.563 57.8807 735.057 58.1648C735.557 58.4432 735.938 58.7614 736.199 59.1193C736.466 59.4716 736.673 59.7614 736.821 59.9886H736.991V53.5455H739.003V71H737.06V68.9886H736.821C736.673 69.2273 736.463 69.5284 736.19 69.892C735.918 70.25 735.528 70.571 735.023 70.8551C734.517 71.1335 733.844 71.2727 733.003 71.2727ZM733.276 69.4659C734.082 69.4659 734.764 69.2557 735.321 68.8352C735.878 68.4091 736.301 67.821 736.591 67.071C736.881 66.3153 737.026 65.4432 737.026 64.4545C737.026 63.4773 736.884 62.6222 736.599 61.8892C736.315 61.1506 735.895 60.5767 735.338 60.1676C734.781 59.7528 734.094 59.5455 733.276 59.5455C732.423 59.5455 731.713 59.7642 731.145 60.2017C730.582 60.6335 730.159 61.2216 729.875 61.9659C729.597 62.7045 729.457 63.5341 729.457 64.4545C729.457 65.3864 729.599 66.233 729.884 66.9943C730.173 67.75 730.599 68.3523 731.162 68.8011C731.73 69.2443 732.435 69.4659 733.276 69.4659ZM747.909 71.2727C746.818 71.2727 745.855 70.9972 745.02 70.446C744.185 69.8892 743.531 69.1051 743.06 68.0938C742.588 67.0767 742.352 65.875 742.352 64.4886C742.352 63.1136 742.588 61.9205 743.06 60.9091C743.531 59.8977 744.188 59.1165 745.028 58.5653C745.869 58.0142 746.841 57.7386 747.943 57.7386C748.795 57.7386 749.469 57.8807 749.963 58.1648C750.463 58.4432 750.844 58.7614 751.105 59.1193C751.372 59.4716 751.58 59.7614 751.727 59.9886H751.898V53.5455H753.909V71H751.966V68.9886H751.727C751.58 69.2273 751.369 69.5284 751.097 69.892C750.824 70.25 750.435 70.571 749.929 70.8551C749.423 71.1335 748.75 71.2727 747.909 71.2727ZM748.182 69.4659C748.989 69.4659 749.67 69.2557 750.227 68.8352C750.784 68.4091 751.207 67.821 751.497 67.071C751.787 66.3153 751.932 65.4432 751.932 64.4545C751.932 63.4773 751.79 62.6222 751.506 61.8892C751.222 61.1506 750.801 60.5767 750.244 60.1676C749.688 59.7528 749 59.5455 748.182 59.5455C747.33 59.5455 746.619 59.7642 746.051 60.2017C745.489 60.6335 745.065 61.2216 744.781 61.9659C744.503 62.7045 744.364 63.5341 744.364 64.4545C744.364 65.3864 744.506 66.233 744.79 66.9943C745.08 67.75 745.506 68.3523 746.068 68.8011C746.636 69.2443 747.341 69.4659 748.182 69.4659ZM757.872 71V57.9091H759.815V59.8864H759.952C760.19 59.2386 760.622 58.7131 761.247 58.3097C761.872 57.9062 762.577 57.7045 763.361 57.7045C763.509 57.7045 763.693 57.7074 763.915 57.7131C764.136 57.7187 764.304 57.7273 764.418 57.7386V59.7841C764.349 59.767 764.193 59.7415 763.949 59.7074C763.71 59.6676 763.457 59.6477 763.19 59.6477C762.554 59.6477 761.986 59.7812 761.486 60.0483C760.991 60.3097 760.599 60.6733 760.31 61.1392C760.026 61.5994 759.884 62.125 759.884 62.7159V71H757.872ZM766.768 71.1364C766.347 71.1364 765.987 70.9858 765.685 70.6847C765.384 70.3835 765.234 70.0227 765.234 69.6023C765.234 69.1818 765.384 68.821 765.685 68.5199C765.987 68.2187 766.347 68.0682 766.768 68.0682C767.188 68.0682 767.549 68.2187 767.85 68.5199C768.151 68.821 768.302 69.1818 768.302 69.6023C768.302 69.8807 768.231 70.1364 768.089 70.3693C767.952 70.6023 767.768 70.7898 767.535 70.9318C767.308 71.0682 767.052 71.1364 766.768 71.1364ZM794.508 51.176V72.872H796.428V51.176H794.508ZM790.836 59.864V61.52H795.012V59.864H790.836ZM789.588 51.656V71.768H791.46V51.656H789.588ZM778.788 65.864V67.52H780.204C783.468 67.52 785.652 67.424 788.244 66.872L788.052 65.216C785.532 65.744 783.372 65.864 780.204 65.864H778.788ZM778.788 53.816V66.608H780.756V55.448H786.852V53.816H778.788ZM802.546 52.592V54.2H816.106V52.592H802.546ZM800.098 61.904V63.536H819.706V61.904H800.098ZM808.858 62.984V72.896H810.85V62.984H808.858ZM815.17 52.592V54.464C815.17 56.648 815.17 59.168 814.33 62.672L816.298 62.936C817.114 59.264 817.114 56.72 817.114 54.464V52.592H815.17ZM823.329 52.52V54.152H832.929V52.52H823.329ZM826.593 57.224V62.408H828.561V57.224H826.593ZM832.137 52.52V53.696C832.137 55.064 832.137 56.864 831.585 59.408L833.529 59.576C834.081 57.008 834.081 55.064 834.081 53.696V52.52H832.137ZM837.057 51.176V64.712H839.049V51.176H837.057ZM838.137 57.08V58.76H842.145V57.08H838.137ZM822.249 63.224C826.113 63.224 831.249 63.128 835.737 62.384L835.593 60.92C831.201 61.496 825.945 61.568 822.009 61.568L822.249 63.224ZM832.041 64.976C827.577 64.976 824.865 66.416 824.865 68.888C824.865 71.384 827.577 72.824 832.041 72.824C836.505 72.824 839.265 71.384 839.265 68.888C839.265 66.416 836.505 64.976 832.041 64.976ZM832.041 66.536C835.281 66.536 837.225 67.4 837.225 68.888C837.225 70.376 835.281 71.24 832.041 71.24C828.825 71.24 826.857 70.376 826.857 68.888C826.857 67.4 828.825 66.536 832.041 66.536ZM854.119 54.368V56H860.743V54.368H854.119ZM854.119 59.216V60.872H860.743V59.216H854.119ZM847.615 65.168V66.776H860.095V72.872H862.087V65.168H847.615ZM860.095 51.176V63.968H862.087V51.176H860.095ZM850.159 52.376C846.943 52.376 844.567 54.536 844.567 57.608C844.567 60.68 846.943 62.816 850.159 62.816C853.351 62.816 855.751 60.68 855.751 57.608C855.751 54.536 853.351 52.376 850.159 52.376ZM850.159 54.08C852.271 54.08 853.855 55.544 853.855 57.608C853.855 59.672 852.271 61.112 850.159 61.112C848.047 61.112 846.487 59.672 846.487 57.608C846.487 55.544 848.047 54.08 850.159 54.08ZM872.045 53.048V56.936C872.045 61.04 869.429 65.192 866.213 66.728L867.437 68.36C870.989 66.56 873.677 61.928 873.677 56.936V53.048H872.045ZM872.381 53.048V56.936C872.381 61.76 875.093 66.224 878.621 67.952L879.821 66.368C876.605 64.88 874.013 60.896 874.013 56.936V53.048H872.381ZM882.077 51.152V72.896H884.069V51.152H882.077ZM896.121 59.672V61.304H897.801C902.241 61.304 904.881 61.16 907.953 60.536L907.713 58.928C904.737 59.528 902.169 59.672 897.801 59.672H896.121ZM896.121 52.424V60.632H898.089V54.032H905.697V52.424H896.121ZM909.993 51.176V62.096H911.985V51.176H909.993ZM911.433 55.736V57.392H915.201V55.736H911.433ZM898.209 63.2V64.784H910.041V67.016H898.257V71.912H900.225V68.552H911.985V63.2H898.209ZM898.257 70.976V72.584H912.777V70.976H898.257ZM922.687 52.4V54.632C922.687 57.944 920.527 60.848 917.215 62.024L918.247 63.656C921.967 62.264 924.343 58.832 924.343 54.632V52.4H922.687ZM923.047 52.4V54.56C923.047 58.496 925.375 61.688 928.879 63.008L929.959 61.448C926.791 60.344 924.679 57.632 924.679 54.56V52.4H923.047ZM933.079 51.176V64.016H935.071V51.176H933.079ZM927.943 64.64C923.455 64.64 920.695 66.152 920.695 68.744C920.695 71.336 923.455 72.824 927.943 72.824C932.407 72.824 935.167 71.336 935.167 68.744C935.167 66.152 932.407 64.64 927.943 64.64ZM927.943 66.224C931.207 66.224 933.199 67.16 933.199 68.744C933.199 70.328 931.207 71.264 927.943 71.264C924.679 71.264 922.687 70.328 922.687 68.744C922.687 67.16 924.679 66.224 927.943 66.224ZM928.375 55.76V57.416H933.511V55.76H928.375ZM941.813 52.328V53.936H955.661V52.328H941.813ZM939.317 60.728V62.336H958.973V60.728H939.317ZM948.221 61.712V67.568H950.213V61.712H948.221ZM954.485 52.328V54.056C954.485 55.976 954.485 58.208 953.765 61.328L955.709 61.592C956.429 58.328 956.429 56.024 956.429 54.056V52.328H954.485ZM941.789 70.76V72.392H956.861V70.76H941.789ZM941.789 65.624V71.192H943.781V65.624H941.789ZM970.593 52.592V54.2H984.153V52.592H970.593ZM968.145 61.904V63.536H987.753V61.904H968.145ZM976.905 62.984V72.896H978.897V62.984H976.905ZM983.217 52.592V54.464C983.217 56.648 983.217 59.168 982.377 62.672L984.345 62.936C985.161 59.264 985.161 56.72 985.161 54.464V52.592H983.217ZM995.959 54.272V57.8C995.959 61.544 993.343 65.624 990.199 67.112L991.351 68.696C994.807 66.992 997.567 62.384 997.567 57.8V54.272H995.959ZM996.343 54.272V57.8C996.343 62.312 999.127 66.536 1002.63 68.168L1003.76 66.584C1000.57 65.216 997.951 61.472 997.951 57.8V54.272H996.343ZM990.919 53.384V55.064H1003.04V53.384H990.919ZM1005.97 51.176V72.872H1007.96V51.176H1005.97ZM1022.69 54.992V56.624H1028.77V54.992H1022.69ZM1022.69 59.624V61.28H1028.81V59.624H1022.69ZM1013.29 53.048V63.224H1023.2V53.048H1013.29ZM1021.23 54.656V61.616H1015.23V54.656H1021.23ZM1028.14 51.2V67.04H1030.13V51.2H1028.14ZM1016.19 70.76V72.392H1030.66V70.76H1016.19ZM1016.19 65.6V71.504H1018.18V65.6H1016.19ZM1046.53 54.92V55.856C1046.53 58.76 1044.37 61.352 1041.15 62.36L1042.11 63.92C1045.74 62.72 1048.16 59.624 1048.16 55.856V54.92H1046.53ZM1046.89 54.92V55.856C1046.89 59.336 1049.27 62.264 1052.89 63.368L1053.83 61.808C1050.63 60.872 1048.52 58.472 1048.52 55.856V54.92H1046.89ZM1041.73 53.792V55.4H1053.3V53.792H1041.73ZM1046.53 51.08V54.368H1048.52V51.08H1046.53ZM1055.96 51.176V64.472H1057.95V51.176H1055.96ZM1057.4 56.768V58.448H1061.17V56.768H1057.4ZM1051.04 65C1046.6 65 1043.91 66.44 1043.91 68.912C1043.91 71.408 1046.6 72.824 1051.04 72.824C1055.48 72.824 1058.17 71.408 1058.17 68.912C1058.17 66.44 1055.48 65 1051.04 65ZM1051.04 66.56C1054.26 66.56 1056.23 67.424 1056.23 68.912C1056.23 70.4 1054.26 71.264 1051.04 71.264C1047.83 71.264 1045.86 70.4 1045.86 68.912C1045.86 67.424 1047.83 66.56 1051.04 66.56ZM1079 51.152V72.896H1080.99V51.152H1079ZM1064.46 66.008V67.664H1066.26C1069.98 67.664 1073.24 67.52 1077.18 66.872L1076.96 65.24C1073.12 65.864 1069.88 66.008 1066.26 66.008H1064.46ZM1064.41 53.192V54.824H1072.42V59.312H1064.46V66.632H1066.45V60.944H1074.44V53.192H1064.41ZM1085.29 68.552V70.208H1104.94V68.552H1085.29ZM1094.07 63.896V69.248H1096.06V63.896H1094.07ZM1087.66 52.784V54.392H1100.55V57.752H1087.73V63.704H1089.7V59.36H1102.52V52.784H1087.66ZM1087.73 62.864V64.496H1103.02V62.864H1087.73ZM1120.86 53.5455V71H1118.74V55.7614H1118.64L1114.38 58.5909V56.4432L1118.74 53.5455H1120.86ZM1132.01 53.5455V71H1129.9V55.7614H1129.8L1125.54 58.5909V56.4432L1129.9 53.5455H1132.01ZM1152.19 51.176V62.24H1154.21V51.176H1152.19ZM1145.57 52.232V53.24C1145.57 57.008 1142.5 59.816 1136.79 61.064L1137.51 62.696C1143.89 61.208 1147.75 57.776 1147.75 52.232H1145.57ZM1137.87 52.232V53.864H1146.91V52.232H1137.87ZM1140.17 63.296V64.88H1152.22V67.088H1140.22V71.864H1142.19V68.576H1154.21V63.296H1140.17ZM1140.22 71.072V72.656H1154.93V71.072H1140.22ZM1171.42 53.3068C1172.13 53.3125 1172.85 53.4489 1173.57 53.7159C1174.28 53.983 1174.94 54.4261 1175.53 55.0455C1176.12 55.6591 1176.59 56.4972 1176.95 57.5597C1177.31 58.6222 1177.49 59.9545 1177.49 61.5568C1177.49 63.108 1177.34 64.4858 1177.04 65.6903C1176.75 66.8892 1176.33 67.9006 1175.78 68.7244C1175.24 69.5483 1174.57 70.1733 1173.79 70.5994C1173.01 71.0256 1172.13 71.2386 1171.15 71.2386C1170.17 71.2386 1169.3 71.0455 1168.53 70.6591C1167.77 70.267 1167.14 69.7244 1166.65 69.0312C1166.17 68.3324 1165.86 67.5227 1165.73 66.6023H1167.8C1167.99 67.4034 1168.36 68.0653 1168.92 68.5881C1169.48 69.1051 1170.23 69.3636 1171.15 69.3636C1172.49 69.3636 1173.55 68.7756 1174.33 67.5994C1175.12 66.4233 1175.51 64.7614 1175.51 62.6136H1175.37C1175.05 63.0909 1174.68 63.5028 1174.24 63.8494C1173.8 64.196 1173.32 64.4631 1172.78 64.6506C1172.25 64.8381 1171.68 64.9318 1171.08 64.9318C1170.08 64.9318 1169.16 64.6847 1168.32 64.1903C1167.5 63.6903 1166.83 63.0057 1166.33 62.1364C1165.84 61.2614 1165.59 60.2614 1165.59 59.1364C1165.59 58.0682 1165.83 57.0909 1166.3 56.2045C1166.79 55.3125 1167.46 54.6023 1168.33 54.0739C1169.21 53.5455 1170.24 53.2898 1171.42 53.3068ZM1171.42 55.1818C1170.7 55.1818 1170.06 55.3608 1169.48 55.7188C1168.92 56.071 1168.46 56.5483 1168.13 57.1506C1167.8 57.7472 1167.63 58.4091 1167.63 59.1364C1167.63 59.8636 1167.79 60.5256 1168.11 61.1222C1168.44 61.7131 1168.88 62.1847 1169.43 62.5369C1170 62.8835 1170.63 63.0568 1171.35 63.0568C1171.89 63.0568 1172.39 62.9517 1172.86 62.7415C1173.32 62.5256 1173.73 62.233 1174.08 61.8636C1174.43 61.4886 1174.71 61.0653 1174.9 60.5938C1175.1 60.1165 1175.2 59.6193 1175.2 59.1023C1175.2 58.4205 1175.04 57.7812 1174.71 57.1847C1174.38 56.5881 1173.94 56.1051 1173.36 55.7358C1172.79 55.3665 1172.15 55.1818 1171.42 55.1818ZM1186.74 71.2386C1185.61 71.2386 1184.61 71.0455 1183.73 70.6591C1182.85 70.2727 1182.16 69.7358 1181.64 69.0483C1181.13 68.3551 1180.85 67.5511 1180.8 66.6364H1182.95C1183 67.1989 1183.19 67.6847 1183.53 68.0938C1183.87 68.4972 1184.32 68.8097 1184.87 69.0312C1185.42 69.2528 1186.03 69.3636 1186.7 69.3636C1187.45 69.3636 1188.12 69.233 1188.7 68.9716C1189.28 68.7102 1189.73 68.3466 1190.06 67.8807C1190.39 67.4148 1190.55 66.875 1190.55 66.2614C1190.55 65.6193 1190.39 65.054 1190.08 64.5653C1189.76 64.071 1189.29 63.6847 1188.68 63.4062C1188.07 63.1278 1187.32 62.9886 1186.43 62.9886H1185.03V61.1136H1186.43C1187.12 61.1136 1187.73 60.9886 1188.25 60.7386C1188.78 60.4886 1189.19 60.1364 1189.49 59.6818C1189.79 59.2273 1189.94 58.6932 1189.94 58.0795C1189.94 57.4886 1189.81 56.9744 1189.55 56.5369C1189.29 56.0994 1188.92 55.7585 1188.44 55.5142C1187.97 55.2699 1187.41 55.1477 1186.77 55.1477C1186.17 55.1477 1185.6 55.2585 1185.07 55.4801C1184.54 55.696 1184.11 56.0114 1183.77 56.4261C1183.43 56.8352 1183.25 57.3295 1183.22 57.9091H1181.18C1181.21 56.9943 1181.49 56.1932 1182.01 55.5057C1182.52 54.8125 1183.2 54.2727 1184.03 53.8864C1184.88 53.5 1185.8 53.3068 1186.8 53.3068C1187.88 53.3068 1188.81 53.5256 1189.58 53.9631C1190.36 54.3949 1190.95 54.9659 1191.36 55.6761C1191.78 56.3864 1191.99 57.1534 1191.99 57.9773C1191.99 58.9602 1191.73 59.7983 1191.21 60.4915C1190.7 61.1847 1190 61.6648 1189.12 61.9318V62.0682C1190.22 62.25 1191.09 62.7187 1191.7 63.4744C1192.32 64.2244 1192.63 65.1534 1192.63 66.2614C1192.63 67.2102 1192.38 68.0625 1191.86 68.8182C1191.35 69.5682 1190.65 70.1591 1189.76 70.5909C1188.88 71.0227 1187.87 71.2386 1186.74 71.2386ZM721.659 115.909C721.557 115.045 721.142 114.375 720.415 113.898C719.688 113.42 718.795 113.182 717.739 113.182C716.966 113.182 716.29 113.307 715.71 113.557C715.136 113.807 714.688 114.151 714.364 114.588C714.045 115.026 713.886 115.523 713.886 116.08C713.886 116.545 713.997 116.946 714.219 117.281C714.446 117.611 714.736 117.886 715.088 118.108C715.44 118.324 715.81 118.503 716.196 118.645C716.582 118.781 716.938 118.892 717.261 118.977L719.034 119.455C719.489 119.574 719.994 119.739 720.551 119.949C721.114 120.159 721.651 120.446 722.162 120.81C722.679 121.168 723.105 121.628 723.44 122.19C723.776 122.753 723.943 123.443 723.943 124.261C723.943 125.205 723.696 126.057 723.202 126.818C722.713 127.58 721.997 128.185 721.054 128.634C720.116 129.082 718.977 129.307 717.636 129.307C716.386 129.307 715.304 129.105 714.389 128.702C713.48 128.298 712.764 127.736 712.241 127.014C711.724 126.293 711.432 125.455 711.364 124.5H713.545C713.602 125.159 713.824 125.705 714.21 126.136C714.602 126.562 715.097 126.881 715.693 127.091C716.295 127.295 716.943 127.398 717.636 127.398C718.443 127.398 719.168 127.267 719.81 127.006C720.452 126.739 720.96 126.369 721.335 125.898C721.71 125.42 721.898 124.864 721.898 124.227C721.898 123.648 721.736 123.176 721.412 122.812C721.088 122.449 720.662 122.153 720.134 121.926C719.605 121.699 719.034 121.5 718.42 121.33L716.273 120.716C714.909 120.324 713.83 119.764 713.034 119.037C712.239 118.31 711.841 117.358 711.841 116.182C711.841 115.205 712.105 114.352 712.634 113.625C713.168 112.892 713.884 112.324 714.781 111.92C715.685 111.511 716.693 111.307 717.807 111.307C718.932 111.307 719.932 111.509 720.807 111.912C721.682 112.31 722.375 112.855 722.886 113.548C723.403 114.241 723.676 115.028 723.705 115.909H721.659ZM732.464 129.273C731.237 129.273 730.18 128.983 729.293 128.403C728.407 127.824 727.725 127.026 727.248 126.009C726.771 124.991 726.532 123.83 726.532 122.523C726.532 121.193 726.776 120.02 727.265 119.003C727.759 117.98 728.447 117.182 729.327 116.608C730.214 116.028 731.248 115.739 732.43 115.739C733.35 115.739 734.18 115.909 734.918 116.25C735.657 116.591 736.262 117.068 736.734 117.682C737.205 118.295 737.498 119.011 737.612 119.83H735.6C735.447 119.233 735.106 118.705 734.577 118.244C734.055 117.778 733.35 117.545 732.464 117.545C731.68 117.545 730.992 117.75 730.401 118.159C729.816 118.562 729.359 119.134 729.029 119.872C728.705 120.605 728.543 121.466 728.543 122.455C728.543 123.466 728.702 124.347 729.021 125.097C729.344 125.847 729.799 126.429 730.384 126.844C730.975 127.259 731.668 127.466 732.464 127.466C732.987 127.466 733.461 127.375 733.887 127.193C734.313 127.011 734.674 126.75 734.969 126.409C735.265 126.068 735.475 125.659 735.6 125.182H737.612C737.498 125.955 737.217 126.651 736.768 127.27C736.325 127.884 735.737 128.372 735.004 128.736C734.276 129.094 733.43 129.273 732.464 129.273ZM742.563 121.125V129H740.552V111.545H742.563V117.955H742.734C743.04 117.278 743.501 116.741 744.114 116.344C744.734 115.94 745.558 115.739 746.586 115.739C747.478 115.739 748.259 115.918 748.93 116.276C749.6 116.628 750.12 117.17 750.489 117.903C750.864 118.631 751.052 119.557 751.052 120.682V129H749.04V120.818C749.04 119.778 748.771 118.974 748.231 118.406C747.697 117.832 746.955 117.545 746.006 117.545C745.347 117.545 744.756 117.685 744.234 117.963C743.717 118.241 743.308 118.648 743.006 119.182C742.711 119.716 742.563 120.364 742.563 121.125ZM760.05 129.273C758.868 129.273 757.831 128.991 756.939 128.429C756.053 127.866 755.359 127.08 754.859 126.068C754.365 125.057 754.118 123.875 754.118 122.523C754.118 121.159 754.365 119.969 754.859 118.952C755.359 117.935 756.053 117.145 756.939 116.582C757.831 116.02 758.868 115.739 760.05 115.739C761.232 115.739 762.266 116.02 763.152 116.582C764.044 117.145 764.737 117.935 765.232 118.952C765.732 119.969 765.982 121.159 765.982 122.523C765.982 123.875 765.732 125.057 765.232 126.068C764.737 127.08 764.044 127.866 763.152 128.429C762.266 128.991 761.232 129.273 760.05 129.273ZM760.05 127.466C760.947 127.466 761.686 127.236 762.266 126.776C762.845 126.315 763.274 125.71 763.553 124.96C763.831 124.21 763.97 123.398 763.97 122.523C763.97 121.648 763.831 120.832 763.553 120.077C763.274 119.321 762.845 118.71 762.266 118.244C761.686 117.778 760.947 117.545 760.05 117.545C759.152 117.545 758.413 117.778 757.834 118.244C757.254 118.71 756.825 119.321 756.547 120.077C756.268 120.832 756.129 121.648 756.129 122.523C756.129 123.398 756.268 124.21 756.547 124.96C756.825 125.71 757.254 126.315 757.834 126.776C758.413 127.236 759.152 127.466 760.05 127.466ZM774.37 129.273C773.188 129.273 772.151 128.991 771.259 128.429C770.373 127.866 769.68 127.08 769.18 126.068C768.685 125.057 768.438 123.875 768.438 122.523C768.438 121.159 768.685 119.969 769.18 118.952C769.68 117.935 770.373 117.145 771.259 116.582C772.151 116.02 773.188 115.739 774.37 115.739C775.552 115.739 776.586 116.02 777.472 116.582C778.364 117.145 779.058 117.935 779.552 118.952C780.052 119.969 780.302 121.159 780.302 122.523C780.302 123.875 780.052 125.057 779.552 126.068C779.058 127.08 778.364 127.866 777.472 128.429C776.586 128.991 775.552 129.273 774.37 129.273ZM774.37 127.466C775.268 127.466 776.006 127.236 776.586 126.776C777.165 126.315 777.594 125.71 777.873 124.96C778.151 124.21 778.29 123.398 778.29 122.523C778.29 121.648 778.151 120.832 777.873 120.077C777.594 119.321 777.165 118.71 776.586 118.244C776.006 117.778 775.268 117.545 774.37 117.545C773.472 117.545 772.734 117.778 772.154 118.244C771.575 118.71 771.146 119.321 770.867 120.077C770.589 120.832 770.45 121.648 770.45 122.523C770.45 123.398 770.589 124.21 770.867 124.96C771.146 125.71 771.575 126.315 772.154 126.776C772.734 127.236 773.472 127.466 774.37 127.466ZM785.384 111.545V129H783.372V111.545H785.384ZM790.533 129.136C790.113 129.136 789.752 128.986 789.451 128.685C789.15 128.384 788.999 128.023 788.999 127.602C788.999 127.182 789.15 126.821 789.451 126.52C789.752 126.219 790.113 126.068 790.533 126.068C790.954 126.068 791.315 126.219 791.616 126.52C791.917 126.821 792.067 127.182 792.067 127.602C792.067 127.881 791.996 128.136 791.854 128.369C791.718 128.602 791.533 128.79 791.3 128.932C791.073 129.068 790.817 129.136 790.533 129.136ZM818.274 109.176V130.872H820.194V109.176H818.274ZM814.602 117.864V119.52H818.778V117.864H814.602ZM813.354 109.656V129.768H815.226V109.656H813.354ZM802.554 123.864V125.52H803.97C807.234 125.52 809.418 125.424 812.01 124.872L811.818 123.216C809.298 123.744 807.138 123.864 803.97 123.864H802.554ZM802.554 111.816V124.608H804.522V113.448H810.618V111.816H802.554ZM826.312 110.592V112.2H839.872V110.592H826.312ZM823.864 119.904V121.536H843.472V119.904H823.864ZM832.624 120.984V130.896H834.616V120.984H832.624ZM838.936 110.592V112.464C838.936 114.648 838.936 117.168 838.096 120.672L840.064 120.936C840.88 117.264 840.88 114.72 840.88 112.464V110.592H838.936ZM852.692 126.408V128.064H872.348V126.408H852.692ZM861.428 121.152V126.96H863.396V121.152H861.428ZM861.38 110.616V112.296C861.38 115.872 857.276 119.064 853.46 119.76L854.3 121.416C858.668 120.504 863.108 116.928 863.108 112.296V110.616H861.38ZM861.74 110.616V112.296C861.74 116.928 866.18 120.504 870.548 121.416L871.412 119.76C867.596 119.064 863.468 115.896 863.468 112.296V110.616H861.74ZM874.77 126.432V128.088H894.426V126.432H874.77ZM876.474 111.336V112.968H892.578V111.336H876.474ZM876.522 120.504V122.136H892.554V120.504H876.522ZM879.858 112.848V120.672H881.85V112.848H879.858ZM887.25 112.848V120.672H889.218V112.848H887.25ZM899.368 120.864V122.472H914.272V120.864H899.368ZM896.848 126.432V128.088H916.504V126.432H896.848ZM899.368 111.024V121.368H901.384V112.656H914.032V111.024H899.368ZM900.736 115.872V117.456H913.576V115.872H900.736ZM924.375 110.568C921.639 110.568 919.671 112.176 919.671 114.552C919.671 116.928 921.639 118.56 924.375 118.56C927.111 118.56 929.103 116.928 929.103 114.552C929.103 112.176 927.111 110.568 924.375 110.568ZM924.375 112.08C926.079 112.08 927.303 113.088 927.303 114.552C927.303 116.016 926.079 117.048 924.375 117.048C922.671 117.048 921.447 116.016 921.447 114.552C921.447 113.088 922.671 112.08 924.375 112.08ZM935.367 109.176V130.872H937.287V109.176H935.367ZM931.287 109.656V129.744H933.159V109.656H931.287ZM927.231 123.408V124.968H931.959V123.408H927.231ZM923.319 121.104V129.12H925.239V121.104H923.319ZM918.879 121.896C921.807 121.896 926.391 121.848 930.063 121.128L929.895 119.664C926.391 120.192 921.591 120.24 918.615 120.24L918.879 121.896ZM946.789 110.832C943.621 110.832 941.389 113.784 941.389 118.392C941.389 123.024 943.621 125.976 946.789 125.976C949.933 125.976 952.189 123.024 952.189 118.392C952.189 113.784 949.933 110.832 946.789 110.832ZM946.789 112.632C948.877 112.632 950.293 114.888 950.293 118.392C950.293 121.92 948.877 124.224 946.789 124.224C944.701 124.224 943.285 121.92 943.285 118.392C943.285 114.888 944.701 112.632 946.789 112.632ZM956.893 109.152V130.896H958.861V109.152H956.893ZM951.541 117.432V119.064H957.757V117.432H951.541ZM970.673 111.336V125.376H980.633V111.336H970.673ZM978.689 112.944V123.768H972.617V112.944H978.689ZM984.497 109.176V130.872H986.513V109.176H984.497ZM986.033 117.84V119.52H990.065V117.84H986.033ZM1007.65 109.152V130.896H1009.65V109.152H1007.65ZM998.199 110.832C995.007 110.832 992.703 113.784 992.703 118.392C992.703 123.024 995.007 125.976 998.199 125.976C1001.41 125.976 1003.72 123.024 1003.72 118.392C1003.72 113.784 1001.41 110.832 998.199 110.832ZM998.199 112.632C1000.33 112.632 1001.8 114.888 1001.8 118.392C1001.8 121.92 1000.33 124.224 998.199 124.224C996.087 124.224 994.599 121.92 994.599 118.392C994.599 114.888 996.087 112.632 998.199 112.632ZM1022.68 110.664V112.32C1022.68 116.016 1018.6 119.328 1014.78 120.048L1015.67 121.704C1020.01 120.72 1024.41 117.048 1024.41 112.32V110.664H1022.68ZM1023.04 110.664V112.32C1023.04 117.072 1027.45 120.72 1031.77 121.704L1032.66 120.048C1028.87 119.328 1024.77 116.04 1024.77 112.32V110.664H1023.04ZM1013.99 126.312V127.944H1033.65V126.312H1013.99ZM1051.96 109.152V130.896H1053.92V109.152H1051.96ZM1047.44 117.336V118.992H1052.24V117.336H1047.44ZM1037.05 124.032V125.688H1038.71C1042.84 125.688 1045.48 125.568 1048.6 125.016L1048.4 123.384C1045.36 123.96 1042.79 124.032 1038.71 124.032H1037.05ZM1037.05 111.144V124.608H1039.02V112.8H1047.08V111.144H1037.05ZM1038.52 117.24V118.848H1046.15V117.24H1038.52ZM1066.96 111.336V112.992H1080.93V111.336H1066.96ZM1064.9 126.192V127.848H1084.5V126.192H1064.9ZM1072.5 118.44V127.008H1074.5V118.44H1072.5ZM1080.18 111.336V113.496C1080.18 116.088 1080.18 119.136 1079.37 123.288L1081.36 123.552C1082.15 119.16 1082.15 116.184 1082.15 113.496V111.336H1080.18ZM1086.97 119.496V121.152H1106.58V119.496H1086.97ZM1089.45 115.824V117.432H1104.3V115.824H1089.45ZM1089.45 110.04V116.592H1091.41V111.672H1104.13V110.04H1089.45ZM1096.74 123.024C1092.11 123.024 1089.3 124.44 1089.3 126.936C1089.3 129.432 1092.11 130.824 1096.74 130.824C1101.37 130.824 1104.18 129.432 1104.18 126.936C1104.18 124.44 1101.37 123.024 1096.74 123.024ZM1096.74 124.56C1100.15 124.56 1102.17 125.424 1102.17 126.936C1102.17 128.424 1100.15 129.264 1096.74 129.264C1093.36 129.264 1091.32 128.424 1091.32 126.936C1091.32 125.424 1093.36 124.56 1096.74 124.56ZM1109.1 111.456V113.088H1121.92V111.456H1109.1ZM1115.51 114.192C1112.39 114.192 1110.3 115.728 1110.3 118.128C1110.3 120.504 1112.39 122.016 1115.51 122.016C1118.58 122.016 1120.69 120.504 1120.69 118.128C1120.69 115.728 1118.58 114.192 1115.51 114.192ZM1115.51 115.752C1117.45 115.752 1118.8 116.664 1118.8 118.128C1118.8 119.544 1117.45 120.48 1115.51 120.48C1113.52 120.48 1112.2 119.544 1112.2 118.128C1112.2 116.664 1113.52 115.752 1115.51 115.752ZM1123.88 109.176V122.736H1125.88V109.176H1123.88ZM1125.32 115.152V116.808H1129.09V115.152H1125.32ZM1111.79 123.912V125.544H1123.88V130.872H1125.88V123.912H1111.79ZM1114.5 109.056V112.368H1116.49V109.056H1114.5ZM1133.15 111.336V112.992H1147.11V111.336H1133.15ZM1131.13 126.192V127.848H1150.74V126.192H1131.13ZM1135.93 119.016V126.792H1137.9V119.016H1135.93ZM1146.47 111.336V113.736C1146.47 116.424 1146.47 119.304 1145.7 123.144L1147.69 123.384C1148.43 119.328 1148.43 116.496 1148.43 113.736V111.336H1146.47ZM1141.28 119.016V126.792H1143.25V119.016H1141.28ZM711.159 171.42V169.545H724.25V171.42H718.761V187H716.648V171.42H711.159ZM730.83 187.273C729.568 187.273 728.48 186.994 727.565 186.438C726.656 185.875 725.955 185.091 725.46 184.085C724.972 183.074 724.727 181.898 724.727 180.557C724.727 179.216 724.972 178.034 725.46 177.011C725.955 175.983 726.642 175.182 727.523 174.608C728.409 174.028 729.443 173.739 730.625 173.739C731.307 173.739 731.98 173.852 732.645 174.08C733.31 174.307 733.915 174.676 734.46 175.188C735.006 175.693 735.44 176.364 735.764 177.199C736.088 178.034 736.25 179.062 736.25 180.284V181.136H726.159V179.398H734.205C734.205 178.659 734.057 178 733.761 177.42C733.472 176.841 733.057 176.384 732.517 176.048C731.983 175.713 731.352 175.545 730.625 175.545C729.824 175.545 729.131 175.744 728.545 176.142C727.966 176.534 727.52 177.045 727.207 177.676C726.895 178.307 726.739 178.983 726.739 179.705V180.864C726.739 181.852 726.909 182.69 727.25 183.378C727.597 184.06 728.077 184.58 728.69 184.938C729.304 185.29 730.017 185.466 730.83 185.466C731.358 185.466 731.835 185.392 732.261 185.244C732.693 185.091 733.065 184.864 733.378 184.562C733.69 184.256 733.932 183.875 734.102 183.42L736.045 183.966C735.841 184.625 735.497 185.205 735.014 185.705C734.531 186.199 733.935 186.585 733.224 186.864C732.514 187.136 731.716 187.273 730.83 187.273ZM743.162 187.307C742.332 187.307 741.58 187.151 740.903 186.838C740.227 186.52 739.69 186.062 739.293 185.466C738.895 184.864 738.696 184.136 738.696 183.284C738.696 182.534 738.844 181.926 739.139 181.46C739.435 180.989 739.83 180.619 740.324 180.352C740.818 180.085 741.364 179.886 741.96 179.756C742.563 179.619 743.168 179.511 743.776 179.432C744.571 179.33 745.216 179.253 745.71 179.202C746.21 179.145 746.574 179.051 746.801 178.92C747.034 178.79 747.151 178.562 747.151 178.239V178.17C747.151 177.33 746.92 176.676 746.46 176.21C746.006 175.744 745.315 175.511 744.389 175.511C743.429 175.511 742.676 175.722 742.131 176.142C741.585 176.562 741.202 177.011 740.98 177.489L739.071 176.807C739.412 176.011 739.866 175.392 740.435 174.949C741.009 174.5 741.634 174.187 742.31 174.011C742.991 173.83 743.662 173.739 744.321 173.739C744.741 173.739 745.224 173.79 745.77 173.892C746.321 173.989 746.852 174.19 747.364 174.497C747.881 174.804 748.31 175.267 748.651 175.886C748.991 176.506 749.162 177.335 749.162 178.375V187H747.151V185.227H747.048C746.912 185.511 746.685 185.815 746.366 186.139C746.048 186.463 745.625 186.739 745.097 186.966C744.568 187.193 743.923 187.307 743.162 187.307ZM743.469 185.5C744.264 185.5 744.935 185.344 745.48 185.031C746.031 184.719 746.446 184.315 746.724 183.821C747.009 183.327 747.151 182.807 747.151 182.261V180.42C747.065 180.523 746.878 180.616 746.588 180.702C746.304 180.781 745.974 180.852 745.599 180.915C745.23 180.972 744.869 181.023 744.517 181.068C744.17 181.108 743.889 181.142 743.673 181.17C743.151 181.239 742.662 181.349 742.207 181.503C741.759 181.651 741.395 181.875 741.116 182.176C740.844 182.472 740.707 182.875 740.707 183.386C740.707 184.085 740.966 184.614 741.483 184.972C742.006 185.324 742.668 185.5 743.469 185.5ZM752.833 187V173.909H754.776V175.955H754.947C755.219 175.256 755.66 174.713 756.268 174.327C756.876 173.935 757.606 173.739 758.458 173.739C759.322 173.739 760.04 173.935 760.614 174.327C761.194 174.713 761.646 175.256 761.969 175.955H762.106C762.441 175.278 762.944 174.741 763.614 174.344C764.285 173.94 765.089 173.739 766.026 173.739C767.197 173.739 768.154 174.105 768.898 174.838C769.643 175.565 770.015 176.699 770.015 178.239V187H768.004V178.239C768.004 177.273 767.739 176.582 767.211 176.168C766.683 175.753 766.06 175.545 765.344 175.545C764.424 175.545 763.711 175.824 763.205 176.381C762.7 176.932 762.447 177.631 762.447 178.477V187H760.401V178.034C760.401 177.29 760.16 176.69 759.677 176.236C759.194 175.776 758.572 175.545 757.81 175.545C757.288 175.545 756.799 175.685 756.344 175.963C755.896 176.241 755.532 176.628 755.254 177.122C754.981 177.611 754.844 178.176 754.844 178.818V187H752.833ZM775.158 187.136C774.738 187.136 774.377 186.986 774.076 186.685C773.775 186.384 773.624 186.023 773.624 185.602C773.624 185.182 773.775 184.821 774.076 184.52C774.377 184.219 774.738 184.068 775.158 184.068C775.579 184.068 775.94 184.219 776.241 184.52C776.542 184.821 776.692 185.182 776.692 185.602C776.692 185.881 776.621 186.136 776.479 186.369C776.343 186.602 776.158 186.79 775.925 186.932C775.698 187.068 775.442 187.136 775.158 187.136ZM792.711 187H787.325V169.545H792.95C794.643 169.545 796.092 169.895 797.296 170.594C798.501 171.287 799.424 172.284 800.066 173.585C800.708 174.881 801.029 176.432 801.029 178.239C801.029 180.057 800.705 181.622 800.058 182.935C799.41 184.241 798.467 185.247 797.228 185.952C795.989 186.651 794.484 187 792.711 187ZM789.438 185.125H792.575C794.018 185.125 795.214 184.847 796.163 184.29C797.112 183.733 797.819 182.94 798.285 181.912C798.751 180.884 798.984 179.659 798.984 178.239C798.984 176.83 798.754 175.616 798.293 174.599C797.833 173.577 797.146 172.793 796.231 172.247C795.316 171.696 794.177 171.42 792.813 171.42H789.438V185.125ZM809.79 187.273C808.529 187.273 807.441 186.994 806.526 186.438C805.617 185.875 804.915 185.091 804.421 184.085C803.933 183.074 803.688 181.898 803.688 180.557C803.688 179.216 803.933 178.034 804.421 177.011C804.915 175.983 805.603 175.182 806.484 174.608C807.37 174.028 808.404 173.739 809.586 173.739C810.268 173.739 810.941 173.852 811.606 174.08C812.271 174.307 812.876 174.676 813.421 175.188C813.967 175.693 814.401 176.364 814.725 177.199C815.049 178.034 815.211 179.062 815.211 180.284V181.136H805.12V179.398H813.165C813.165 178.659 813.018 178 812.722 177.42C812.433 176.841 812.018 176.384 811.478 176.048C810.944 175.713 810.313 175.545 809.586 175.545C808.785 175.545 808.092 175.744 807.506 176.142C806.927 176.534 806.481 177.045 806.168 177.676C805.856 178.307 805.7 178.983 805.7 179.705V180.864C805.7 181.852 805.87 182.69 806.211 183.378C806.558 184.06 807.038 184.58 807.651 184.938C808.265 185.29 808.978 185.466 809.79 185.466C810.319 185.466 810.796 185.392 811.222 185.244C811.654 185.091 812.026 184.864 812.339 184.562C812.651 184.256 812.893 183.875 813.063 183.42L815.006 183.966C814.802 184.625 814.458 185.205 813.975 185.705C813.492 186.199 812.896 186.585 812.185 186.864C811.475 187.136 810.677 187.273 809.79 187.273ZM822.123 187.307C821.293 187.307 820.54 187.151 819.864 186.838C819.188 186.52 818.651 186.062 818.254 185.466C817.856 184.864 817.657 184.136 817.657 183.284C817.657 182.534 817.805 181.926 818.1 181.46C818.396 180.989 818.79 180.619 819.285 180.352C819.779 180.085 820.325 179.886 820.921 179.756C821.523 179.619 822.129 179.511 822.737 179.432C823.532 179.33 824.177 179.253 824.671 179.202C825.171 179.145 825.535 179.051 825.762 178.92C825.995 178.79 826.112 178.562 826.112 178.239V178.17C826.112 177.33 825.881 176.676 825.421 176.21C824.967 175.744 824.276 175.511 823.35 175.511C822.39 175.511 821.637 175.722 821.092 176.142C820.546 176.562 820.163 177.011 819.941 177.489L818.032 176.807C818.373 176.011 818.827 175.392 819.396 174.949C819.969 174.5 820.594 174.187 821.271 174.011C821.952 173.83 822.623 173.739 823.282 173.739C823.702 173.739 824.185 173.79 824.731 173.892C825.282 173.989 825.813 174.19 826.325 174.497C826.842 174.804 827.271 175.267 827.612 175.886C827.952 176.506 828.123 177.335 828.123 178.375V187H826.112V185.227H826.009C825.873 185.511 825.646 185.815 825.327 186.139C825.009 186.463 824.586 186.739 824.058 186.966C823.529 187.193 822.884 187.307 822.123 187.307ZM822.43 185.5C823.225 185.5 823.896 185.344 824.441 185.031C824.992 184.719 825.407 184.315 825.685 183.821C825.969 183.327 826.112 182.807 826.112 182.261V180.42C826.026 180.523 825.839 180.616 825.549 180.702C825.265 180.781 824.935 180.852 824.56 180.915C824.191 180.972 823.83 181.023 823.478 181.068C823.131 181.108 822.85 181.142 822.634 181.17C822.112 181.239 821.623 181.349 821.168 181.503C820.719 181.651 820.356 181.875 820.077 182.176C819.805 182.472 819.668 182.875 819.668 183.386C819.668 184.085 819.927 184.614 820.444 184.972C820.967 185.324 821.629 185.5 822.43 185.5ZM846.112 175H843.999C843.874 174.392 843.655 173.858 843.342 173.398C843.036 172.938 842.661 172.551 842.217 172.239C841.78 171.92 841.294 171.682 840.76 171.523C840.226 171.364 839.669 171.284 839.089 171.284C838.033 171.284 837.075 171.551 836.217 172.085C835.365 172.619 834.686 173.406 834.18 174.446C833.68 175.486 833.43 176.761 833.43 178.273C833.43 179.784 833.68 181.06 834.18 182.099C834.686 183.139 835.365 183.926 836.217 184.46C837.075 184.994 838.033 185.261 839.089 185.261C839.669 185.261 840.226 185.182 840.76 185.023C841.294 184.864 841.78 184.628 842.217 184.315C842.661 183.997 843.036 183.608 843.342 183.148C843.655 182.682 843.874 182.148 843.999 181.545H846.112C845.953 182.437 845.663 183.236 845.243 183.94C844.822 184.645 844.3 185.244 843.675 185.739C843.05 186.227 842.348 186.599 841.57 186.855C840.797 187.111 839.97 187.239 839.089 187.239C837.601 187.239 836.277 186.875 835.118 186.148C833.959 185.42 833.047 184.386 832.382 183.045C831.717 181.705 831.385 180.114 831.385 178.273C831.385 176.432 831.717 174.841 832.382 173.5C833.047 172.159 833.959 171.125 835.118 170.398C836.277 169.67 837.601 169.307 839.089 169.307C839.97 169.307 840.797 169.435 841.57 169.69C842.348 169.946 843.05 170.321 843.675 170.815C844.3 171.304 844.822 171.901 845.243 172.605C845.663 173.304 845.953 174.102 846.112 175ZM851.266 179.125V187H849.255V169.545H851.266V175.955H851.437C851.744 175.278 852.204 174.741 852.817 174.344C853.437 173.94 854.261 173.739 855.289 173.739C856.181 173.739 856.962 173.918 857.633 174.276C858.303 174.628 858.823 175.17 859.192 175.903C859.567 176.631 859.755 177.557 859.755 178.682V187H857.744V178.818C857.744 177.778 857.474 176.974 856.934 176.406C856.4 175.832 855.658 175.545 854.71 175.545C854.05 175.545 853.46 175.685 852.937 175.963C852.42 176.241 852.011 176.648 851.71 177.182C851.414 177.716 851.266 178.364 851.266 179.125ZM863.435 187V173.909H865.446V187H863.435ZM864.457 171.727C864.065 171.727 863.727 171.594 863.443 171.327C863.165 171.06 863.026 170.739 863.026 170.364C863.026 169.989 863.165 169.668 863.443 169.401C863.727 169.134 864.065 169 864.457 169C864.849 169 865.185 169.134 865.463 169.401C865.747 169.668 865.889 169.989 865.889 170.364C865.889 170.739 865.747 171.06 865.463 171.327C865.185 171.594 864.849 171.727 864.457 171.727ZM873.393 187L868.621 169.545H870.768L874.416 183.761H874.587L878.303 169.545H880.689L884.405 183.761H884.575L888.223 169.545H890.371L885.598 187H883.416L879.564 173.091H879.428L875.575 187H873.393ZM896.831 187.273C895.649 187.273 894.612 186.991 893.72 186.429C892.834 185.866 892.141 185.08 891.641 184.068C891.146 183.057 890.899 181.875 890.899 180.523C890.899 179.159 891.146 177.969 891.641 176.952C892.141 175.935 892.834 175.145 893.72 174.582C894.612 174.02 895.649 173.739 896.831 173.739C898.013 173.739 899.047 174.02 899.933 174.582C900.825 175.145 901.518 175.935 902.013 176.952C902.513 177.969 902.763 179.159 902.763 180.523C902.763 181.875 902.513 183.057 902.013 184.068C901.518 185.08 900.825 185.866 899.933 186.429C899.047 186.991 898.013 187.273 896.831 187.273ZM896.831 185.466C897.729 185.466 898.467 185.236 899.047 184.776C899.626 184.315 900.055 183.71 900.334 182.96C900.612 182.21 900.751 181.398 900.751 180.523C900.751 179.648 900.612 178.832 900.334 178.077C900.055 177.321 899.626 176.71 899.047 176.244C898.467 175.778 897.729 175.545 896.831 175.545C895.933 175.545 895.195 175.778 894.615 176.244C894.036 176.71 893.607 177.321 893.328 178.077C893.05 178.832 892.911 179.648 892.911 180.523C892.911 181.398 893.05 182.21 893.328 182.96C893.607 183.71 894.036 184.315 894.615 184.776C895.195 185.236 895.933 185.466 896.831 185.466ZM907.844 179.125V187H905.833V173.909H907.776V175.955H907.947C908.254 175.29 908.719 174.756 909.344 174.352C909.969 173.943 910.776 173.739 911.765 173.739C912.651 173.739 913.427 173.92 914.092 174.284C914.756 174.642 915.273 175.188 915.643 175.92C916.012 176.648 916.197 177.568 916.197 178.682V187H914.185V178.818C914.185 177.79 913.918 176.989 913.384 176.415C912.85 175.835 912.117 175.545 911.185 175.545C910.543 175.545 909.969 175.685 909.464 175.963C908.964 176.241 908.569 176.648 908.279 177.182C907.989 177.716 907.844 178.364 907.844 179.125Z" fill="white"/>
</svg>
